<?xml version="1.0" encoding="UTF-8" standalone="no"?>
<!-- Created with Inkscape (http://www.inkscape.org/) -->

<svg
   width="8.5in"
   height="11in"
   viewBox="0 0 215.9 279.4"
   version="1.1"
   id="svg5"
   inkscape:version="1.1.1 (3bf5ae0d25, 2021-09-20)"
   sodipodi:docname="hexagon_ruler.svg"
   xmlns:inkscape="http://www.inkscape.org/namespaces/inkscape"
   xmlns:sodipodi="http://sodipodi.sourceforge.net/DTD/sodipodi-0.dtd"
   xmlns="http://www.w3.org/2000/svg"
   xmlns:svg="http://www.w3.org/2000/svg">
  <sodipodi:namedview
     id="namedview7"
     pagecolor="#ffffff"
     bordercolor="#666666"
     borderopacity="1.0"
     inkscape:pageshadow="2"
     inkscape:pageopacity="0.0"
     inkscape:pagecheckerboard="0"
     inkscape:document-units="in"
     showgrid="false"
     units="in"
     inkscape:zoom="0.64052329"
     inkscape:cx="77.280562"
     inkscape:cy="486.32111"
     inkscape:window-width="1600"
     inkscape:window-height="829"
     inkscape:window-x="1912"
     inkscape:window-y="-8"
     inkscape:window-maximized="1"
     inkscape:current-layer="layer1" />
  <defs
     id="defs2">
    <clipPath
       clipPathUnits="userSpaceOnUse"
       id="clipPath7804">
      <path
         d="M 0,0 H 6608 V 5108 H 0 Z"
         id="path7802" />
    </clipPath>
  </defs>
  <g
     inkscape:label="Layer 1"
     inkscape:groupmode="layer"
     id="layer1">
    <g
       id="g7800"
       clip-path="url(#clipPath7804)"
       transform="matrix(0.04233333,0,0,-0.04233333,-28.735598,269.71493)">
      <path
         d="m 2902.06,3181.1 c -31.1003,-38.9422 -55.5136,-82.7764 -72.2464,-129.716"
         style="fill:none;stroke:#000000;stroke-width:9.44882;stroke-linecap:round;stroke-linejoin:round;stroke-miterlimit:10;stroke-dasharray:none;stroke-opacity:1"
         id="path7806" />
      <path
         d="m 2902.06,3181.1 c 31.3953,39.3139 34.9317,94.0435 8.8542,137.0741"
         style="fill:none;stroke:#000000;stroke-width:9.44882;stroke-linecap:round;stroke-linejoin:round;stroke-miterlimit:10;stroke-dasharray:none;stroke-opacity:1"
         id="path7808" />
      <path
         d="m 2687.49,3686.85 223.42,-368.68"
         style="fill:none;stroke:#000000;stroke-width:9.44882;stroke-linecap:round;stroke-linejoin:round;stroke-miterlimit:10;stroke-dasharray:none;stroke-opacity:1"
         id="path7810" />
      <path
         d="m 2687.49,3686.85 c -34.3503,56.6781 -108.1422,74.7802 -164.8206,40.4317 -8.2392,-4.9931 -15.8471,-10.9603 -22.6594,-17.7726"
         style="fill:none;stroke:#000000;stroke-width:9.44882;stroke-linecap:round;stroke-linejoin:round;stroke-miterlimit:10;stroke-dasharray:none;stroke-opacity:1"
         id="path7812" />
      <path
         d="m 1973.99,3183.49 526.02,526.02"
         style="fill:none;stroke:#000000;stroke-width:9.44882;stroke-linecap:round;stroke-linejoin:round;stroke-miterlimit:10;stroke-dasharray:none;stroke-opacity:1"
         id="path7814" />
      <path
         d="m 1973.99,3183.49 c -46.8641,-46.8649 -46.8641,-122.8447 0,-169.7077 22.1936,-22.1935 52.1991,-34.8085 83.5838,-35.1404"
         style="fill:none;stroke:#000000;stroke-width:9.44882;stroke-linecap:round;stroke-linejoin:round;stroke-miterlimit:10;stroke-dasharray:none;stroke-opacity:1"
         id="path7816" />
      <path
         d="m 2715.51,2971.68 -657.94,6.96"
         style="fill:none;stroke:#000000;stroke-width:9.44882;stroke-linecap:round;stroke-linejoin:round;stroke-miterlimit:10;stroke-dasharray:none;stroke-opacity:1"
         id="path7818" />
      <path
         d="m 2715.51,2971.68 c 51.2046,-0.5373 97.1099,31.4714 114.3036,79.704"
         style="fill:none;stroke:#000000;stroke-width:9.44882;stroke-linecap:round;stroke-linejoin:round;stroke-miterlimit:10;stroke-dasharray:none;stroke-opacity:1"
         id="path7820" />
      <path
         d="M 2838.97,2549.99 2351.65,2024.61"
         style="fill:none;stroke:#000000;stroke-width:9.44882;stroke-linecap:round;stroke-linejoin:round;stroke-miterlimit:10;stroke-dasharray:none;stroke-opacity:1"
         id="path7822" />
      <path
         d="m 2838.97,2549.99 c 34.8115,37.535 41.9806,93.0228 17.8485,138.1728"
         style="fill:none;stroke:#000000;stroke-width:9.44882;stroke-linecap:round;stroke-linejoin:round;stroke-miterlimit:10;stroke-dasharray:none;stroke-opacity:1"
         id="path7824" />
      <path
         d="m 2831.9,2743.45 c 7.0545,-18.9684 15.3791,-37.4393 24.9185,-55.2872"
         style="fill:none;stroke:#000000;stroke-width:9.44882;stroke-linecap:round;stroke-linejoin:round;stroke-miterlimit:10;stroke-dasharray:none;stroke-opacity:1"
         id="path7826" />
      <path
         d="m 2831.9,2743.45 c -17.3128,46.5645 -61.5293,77.6456 -111.2058,78.171"
         style="fill:none;stroke:#000000;stroke-width:9.44882;stroke-linecap:round;stroke-linejoin:round;stroke-miterlimit:10;stroke-dasharray:none;stroke-opacity:1"
         id="path7828" />
      <path
         d="m 2720.69,2821.62 -804.43,8.51"
         style="fill:none;stroke:#000000;stroke-width:9.44882;stroke-linecap:round;stroke-linejoin:round;stroke-miterlimit:10;stroke-dasharray:none;stroke-opacity:1"
         id="path7830" />
      <path
         d="m 1916.26,2830.13 c -66.2665,0.6986 -120.5574,-52.4561 -121.2583,-118.7265 -0.2273,-21.4937 5.3228,-42.6539 16.0703,-61.269"
         style="fill:none;stroke:#000000;stroke-width:9.44882;stroke-linecap:round;stroke-linejoin:round;stroke-miterlimit:10;stroke-dasharray:none;stroke-opacity:1"
         id="path7832" />
      <path
         d="m 2159.74,2046.22 -348.67,603.91"
         style="fill:none;stroke:#000000;stroke-width:9.44882;stroke-linecap:round;stroke-linejoin:round;stroke-miterlimit:10;stroke-dasharray:none;stroke-opacity:1"
         id="path7834" />
      <path
         d="m 2159.74,2046.22 c 33.1406,-57.3974 106.5315,-77.0624 163.9266,-43.9253 10.3896,5.9985 19.8211,13.521 27.9796,22.3168"
         style="fill:none;stroke:#000000;stroke-width:9.44882;stroke-linecap:round;stroke-linejoin:round;stroke-miterlimit:10;stroke-dasharray:none;stroke-opacity:1"
         id="path7836" />
      <path
         d="m 4355.23,2828.95 -568.48,-6.73"
         style="fill:none;stroke:#000000;stroke-width:9.44882;stroke-linecap:round;stroke-linejoin:round;stroke-miterlimit:10;stroke-dasharray:none;stroke-opacity:1"
         id="path7838" />
      <path
         d="m 3786.75,2822.22 c -49.6705,-0.5928 -93.8426,-31.7217 -111.1023,-78.2989"
         style="fill:none;stroke:#000000;stroke-width:9.44882;stroke-linecap:round;stroke-linejoin:round;stroke-miterlimit:10;stroke-dasharray:none;stroke-opacity:1"
         id="path7840" />
      <path
         d="m 3605.02,2619.1 c 30.066,37.566 53.9101,79.7071 70.6277,124.8211"
         style="fill:none;stroke:#000000;stroke-width:9.44882;stroke-linecap:round;stroke-linejoin:round;stroke-miterlimit:10;stroke-dasharray:none;stroke-opacity:1"
         id="path7842" />
      <path
         d="m 3605.02,2619.1 c -31.5986,-39.4841 -35.0508,-94.5463 -8.6281,-137.6712"
         style="fill:none;stroke:#000000;stroke-width:9.44882;stroke-linecap:round;stroke-linejoin:round;stroke-miterlimit:10;stroke-dasharray:none;stroke-opacity:1"
         id="path7844" />
      <path
         d="m 3842.6,2079.58 -246.21,401.85"
         style="fill:none;stroke:#000000;stroke-width:9.44882;stroke-linecap:round;stroke-linejoin:round;stroke-miterlimit:10;stroke-dasharray:none;stroke-opacity:1"
         id="path7846" />
      <path
         d="m 3842.6,2079.58 c 34.6278,-56.5082 108.507,-74.2506 165.0175,-39.6266 13.4395,8.2344 25.1252,19.0358 34.3896,31.7872"
         style="fill:none;stroke:#000000;stroke-width:9.44882;stroke-linecap:round;stroke-linejoin:round;stroke-miterlimit:10;stroke-dasharray:none;stroke-opacity:1"
         id="path7848" />
      <path
         d="M 4453.73,2638.43 4042.01,2071.74"
         style="fill:none;stroke:#000000;stroke-width:9.44882;stroke-linecap:round;stroke-linejoin:round;stroke-miterlimit:10;stroke-dasharray:none;stroke-opacity:1"
         id="path7850" />
      <path
         d="m 4453.73,2638.43 c 38.9549,53.6154 27.0691,128.6597 -26.5478,167.6147 -20.8951,15.1812 -46.1306,23.2157 -71.9566,22.9095"
         style="fill:none;stroke:#000000;stroke-width:9.44882;stroke-linecap:round;stroke-linejoin:round;stroke-miterlimit:10;stroke-dasharray:none;stroke-opacity:1"
         id="path7852" />
      <path
         d="m 3681.74,2055.01 -213.86,349.05"
         style="fill:none;stroke:#000000;stroke-width:9.44882;stroke-linecap:round;stroke-linejoin:round;stroke-miterlimit:10;stroke-dasharray:none;stroke-opacity:1"
         id="path7854" />
      <path
         d="m 3467.88,2404.06 c -26.2864,42.9016 -76.5414,64.85 -125.8746,54.9757"
         style="fill:none;stroke:#000000;stroke-width:9.44882;stroke-linecap:round;stroke-linejoin:round;stroke-miterlimit:10;stroke-dasharray:none;stroke-opacity:1"
         id="path7856" />
      <path
         d="m 3086.14,2482.64 c 81.1796,-32.5695 170.0946,-40.7718 255.8654,-23.6043"
         style="fill:none;stroke:#000000;stroke-width:9.44882;stroke-linecap:round;stroke-linejoin:round;stroke-miterlimit:10;stroke-dasharray:none;stroke-opacity:1"
         id="path7858" />
      <path
         d="m 3086.14,2482.64 c -46.1207,18.5007 -98.8707,6.6649 -132.6628,-29.7663"
         style="fill:none;stroke:#000000;stroke-width:9.44882;stroke-linecap:round;stroke-linejoin:round;stroke-miterlimit:10;stroke-dasharray:none;stroke-opacity:1"
         id="path7860" />
      <path
         d="m 2953.48,2452.87 -351.5,-378.95"
         style="fill:none;stroke:#000000;stroke-width:9.44882;stroke-linecap:round;stroke-linejoin:round;stroke-miterlimit:10;stroke-dasharray:none;stroke-opacity:1"
         id="path7862" />
      <path
         d="m 2601.98,2073.92 c -45.0739,-48.5893 -42.2204,-124.5155 6.3694,-169.5854 22.1905,-20.5831 51.3394,-32.0204 81.6062,-32.0204"
         style="fill:none;stroke:#000000;stroke-width:9.44882;stroke-linecap:round;stroke-linejoin:round;stroke-miterlimit:10;stroke-dasharray:none;stroke-opacity:1"
         id="path7864" />
      <path
         d="M 3579.42,1872.31 H 2689.96"
         style="fill:none;stroke:#000000;stroke-width:9.44882;stroke-linecap:round;stroke-linejoin:round;stroke-miterlimit:10;stroke-dasharray:none;stroke-opacity:1"
         id="path7866" />
      <path
         d="m 3579.42,1872.31 c 66.2778,0 120.0036,53.73 120.0036,120.0042 0,22.1277 -6.1183,43.8246 -17.6786,62.6924"
         style="fill:none;stroke:#000000;stroke-width:9.44882;stroke-linecap:round;stroke-linejoin:round;stroke-miterlimit:10;stroke-dasharray:none;stroke-opacity:1"
         id="path7868" />
      <path
         d="m 2871.77,3672.19 166.84,-275.3"
         style="fill:none;stroke:#000000;stroke-width:9.44882;stroke-linecap:round;stroke-linejoin:round;stroke-miterlimit:10;stroke-dasharray:none;stroke-opacity:1"
         id="path7870" />
      <path
         d="m 3038.61,3396.89 c 26.2076,-43.2524 76.7194,-65.428 126.2973,-55.4508"
         style="fill:none;stroke:#000000;stroke-width:9.44882;stroke-linecap:round;stroke-linejoin:round;stroke-miterlimit:10;stroke-dasharray:none;stroke-opacity:1"
         id="path7872" />
      <path
         d="m 3453.01,3303.73 c -89.221,44.082 -190.54,57.3431 -288.1027,37.7092"
         style="fill:none;stroke:#000000;stroke-width:9.44882;stroke-linecap:round;stroke-linejoin:round;stroke-miterlimit:10;stroke-dasharray:none;stroke-opacity:1"
         id="path7874" />
      <path
         d="m 3453.01,3303.73 c 45.9135,-22.6819 101.1599,-13.7309 137.5603,22.2878"
         style="fill:none;stroke:#000000;stroke-width:9.44882;stroke-linecap:round;stroke-linejoin:round;stroke-miterlimit:10;stroke-dasharray:none;stroke-opacity:1"
         id="path7876" />
      <path
         d="M 3917.06,3649.09 3590.57,3326.02"
         style="fill:none;stroke:#000000;stroke-width:9.44882;stroke-linecap:round;stroke-linejoin:round;stroke-miterlimit:10;stroke-dasharray:none;stroke-opacity:1"
         id="path7878" />
      <path
         d="m 3917.06,3649.09 c 47.1095,46.6104 47.5099,122.5891 0.8945,169.6983 -22.5396,22.7785 -53.2536,35.5955 -85.2987,35.5955"
         style="fill:none;stroke:#000000;stroke-width:9.44882;stroke-linecap:round;stroke-linejoin:round;stroke-miterlimit:10;stroke-dasharray:none;stroke-opacity:1"
         id="path7880" />
      <path
         d="m 2974.39,3854.38 h 858.27"
         style="fill:none;stroke:#000000;stroke-width:9.44882;stroke-linecap:round;stroke-linejoin:round;stroke-miterlimit:10;stroke-dasharray:none;stroke-opacity:1"
         id="path7882" />
      <path
         d="m 2974.39,3854.38 c -66.2715,0 -119.9974,-53.722 -119.9974,-119.9962 0,-21.9292 6.0091,-43.4392 17.3746,-62.1934"
         style="fill:none;stroke:#000000;stroke-width:9.44882;stroke-linecap:round;stroke-linejoin:round;stroke-miterlimit:10;stroke-dasharray:none;stroke-opacity:1"
         id="path7884" />
      <path
         d="M 4171.66,3689.99 3691.24,3214.61"
         style="fill:none;stroke:#000000;stroke-width:9.44882;stroke-linecap:round;stroke-linejoin:round;stroke-miterlimit:10;stroke-dasharray:none;stroke-opacity:1"
         id="path7886" />
      <path
         d="m 3691.24,3214.61 c -35.3061,-34.9368 -45.4378,-88.0223 -25.4774,-133.5119"
         style="fill:none;stroke:#000000;stroke-width:9.44882;stroke-linecap:round;stroke-linejoin:round;stroke-miterlimit:10;stroke-dasharray:none;stroke-opacity:1"
         id="path7888" />
      <path
         d="m 3677.39,3051.86 c -3.5329,9.8774 -7.4115,19.63 -11.6274,29.2381"
         style="fill:none;stroke:#000000;stroke-width:9.44882;stroke-linecap:round;stroke-linejoin:round;stroke-miterlimit:10;stroke-dasharray:none;stroke-opacity:1"
         id="path7890" />
      <path
         d="m 3677.39,3051.86 c 17.2513,-48.2219 63.2023,-80.1806 114.4113,-79.5736"
         style="fill:none;stroke:#000000;stroke-width:9.44882;stroke-linecap:round;stroke-linejoin:round;stroke-miterlimit:10;stroke-dasharray:none;stroke-opacity:1"
         id="path7892" />
      <path
         d="m 4466.42,2980.28 -674.62,-7.99"
         style="fill:none;stroke:#000000;stroke-width:9.44882;stroke-linecap:round;stroke-linejoin:round;stroke-miterlimit:10;stroke-dasharray:none;stroke-opacity:1"
         id="path7894" />
      <path
         d="m 4466.42,2980.28 c 66.273,0.7883 119.3582,55.1472 118.5727,121.4167 -0.1811,15.279 -3.2786,30.3828 -9.126,44.4997"
         style="fill:none;stroke:#000000;stroke-width:9.44882;stroke-linecap:round;stroke-linejoin:round;stroke-miterlimit:10;stroke-dasharray:none;stroke-opacity:1"
         id="path7896" />
      <path
         d="M 4366.93,3650.62 4575.87,3146.2"
         style="fill:none;stroke:#000000;stroke-width:9.44882;stroke-linecap:round;stroke-linejoin:round;stroke-miterlimit:10;stroke-dasharray:none;stroke-opacity:1"
         id="path7898" />
      <path
         d="m 4366.93,3650.62 c -25.3625,61.2247 -95.5587,90.3009 -156.788,64.9389 -14.3625,-5.9491 -27.4322,-14.6323 -38.4825,-25.5668"
         style="fill:none;stroke:#000000;stroke-width:9.44882;stroke-linecap:round;stroke-linejoin:round;stroke-miterlimit:10;stroke-dasharray:none;stroke-opacity:1"
         id="path7900" />
      <path
         d="m 2953.69,2900.28 c 0,-165.6817 134.3117,-299.9962 299.9971,-299.9962 165.6854,0 300,134.3145 300,300 0,165.6854 -134.3146,300 -300,300 -165.6854,0 -300,-134.3146 -300,-300"
         style="fill:none;stroke:#000000;stroke-width:9.44882;stroke-linecap:round;stroke-linejoin:round;stroke-miterlimit:10;stroke-dasharray:none;stroke-opacity:1"
         id="path7902" />
      <path
         d="M 2173.54,1722.31 1488.03,2909.66"
         style="fill:none;stroke:#000000;stroke-width:9.44882;stroke-linecap:round;stroke-linejoin:round;stroke-miterlimit:10;stroke-dasharray:none;stroke-opacity:1"
         id="path7904" />
      <path
         d="M 1488.03,2909.66 2582.75,4004.38"
         style="fill:none;stroke:#000000;stroke-width:9.44882;stroke-linecap:round;stroke-linejoin:round;stroke-miterlimit:10;stroke-dasharray:none;stroke-opacity:1"
         id="path7906" />
      <path
         d="m 2582.75,4004.38 h 1800"
         style="fill:none;stroke:#000000;stroke-width:9.44882;stroke-linecap:round;stroke-linejoin:round;stroke-miterlimit:10;stroke-dasharray:none;stroke-opacity:1"
         id="path7908" />
      <path
         d="M 4382.75,4004.38 4836.2,2909.66"
         style="fill:none;stroke:#000000;stroke-width:9.44882;stroke-linecap:round;stroke-linejoin:round;stroke-miterlimit:10;stroke-dasharray:none;stroke-opacity:1"
         id="path7910" />
      <path
         d="M 4836.2,2909.66 3973.54,1722.31"
         style="fill:none;stroke:#000000;stroke-width:9.44882;stroke-linecap:round;stroke-linejoin:round;stroke-miterlimit:10;stroke-dasharray:none;stroke-opacity:1"
         id="path7912" />
      <path
         d="m 3973.54,1722.31 h -1800"
         style="fill:none;stroke:#000000;stroke-width:9.44882;stroke-linecap:round;stroke-linejoin:round;stroke-miterlimit:10;stroke-dasharray:none;stroke-opacity:1"
         id="path7914" />
    </g>
    <path
       sodipodi:type="star"
       style="vector-effect:non-scaling-stroke;fill:#782121;stroke:#ff0000;stroke-width:0.00375014;-inkscape-stroke:hairline"
       id="path8321"
       inkscape:flatsided="true"
       sodipodi:sides="6"
       sodipodi:cx="271.84805"
       sodipodi:cy="717.77252"
       sodipodi:r1="5.1963477"
       sodipodi:r2="4.5001693"
       sodipodi:arg1="1.0471976"
       sodipodi:arg2="1.5707963"
       inkscape:rounded="0"
       inkscape:randomized="0"
       d="m 274.44623,722.27269 -5.19635,0 -2.59817,-4.50017 2.59817,-4.50017 5.19635,0 2.59817,4.50017 z"
       transform="matrix(0.70552902,0,0,0.70552902,-123.8783,-315.23725)"
       inkscape:transform-center-y="-6.6490157e-06" />
    <path
       sodipodi:type="star"
       style="vector-effect:non-scaling-stroke;fill:#782121;stroke:#ff0000;stroke-width:0.0121483;-inkscape-stroke:hairline"
       id="path8529"
       inkscape:flatsided="true"
       sodipodi:sides="5"
       sodipodi:cx="515.54547"
       sodipodi:cy="811.40448"
       sodipodi:r1="15.921418"
       sodipodi:r2="12.880698"
       sodipodi:arg1="0.98279372"
       sodipodi:arg2="1.6111123"
       inkscape:rounded="0"
       inkscape:randomized="0"
       d="m 524.37709,824.6519 -18.70155,-0.75438 -5.06163,-18.01934 15.57327,-10.38218 14.68646,11.60279 z"
       transform="matrix(0,0.21779467,-0.21779467,0,312.68618,78.460542)"
       inkscape:transform-center-x="-0.28978631"
       inkscape:transform-center-y="0.043189452" />
    <circle
       style="vector-effect:non-scaling-stroke;fill:#782121;stroke:#ff0000;stroke-width:0.00264583;-inkscape-stroke:hairline"
       id="path8732"
       cx="42.726807"
       cy="147.13118"
       r="3.175" />
    <path
       sodipodi:type="star"
       style="vector-effect:non-scaling-stroke;fill:#782121;stroke:#ff0000;stroke-width:0.0196269;-inkscape-stroke:hairline"
       id="path8836"
       inkscape:flatsided="true"
       sodipodi:sides="4"
       sodipodi:cx="298.06696"
       sodipodi:cy="269.9162"
       sodipodi:r1="17.800686"
       sodipodi:r2="12.586986"
       sodipodi:arg1="1.4464413"
       sodipodi:arg2="2.2318395"
       inkscape:rounded="0"
       inkscape:randomized="0"
       d="m 300.27486,287.57943 -19.87113,-15.45533 15.45532,-19.87113 19.87113,15.45532 z"
       transform="matrix(0.08114027,-0.06031032,0.10723016,0.14426526,31.172566,85.026686)" />
    <path
       sodipodi:type="star"
       style="vector-effect:non-scaling-stroke;fill:#782121;stroke:#ff0000;stroke-width:0.00504145;-inkscape-stroke:hairline"
       id="path9088"
       inkscape:flatsided="true"
       sodipodi:sides="8"
       sodipodi:cx="320.42197"
       sodipodi:cy="378.24146"
       sodipodi:r1="6.487184"
       sodipodi:r2="5.9933767"
       sodipodi:arg1="1.1547318"
       sodipodi:arg2="1.5474309"
       inkscape:rounded="0"
       inkscape:randomized="0"
       d="m 323.04385,384.1752 -4.96372,0.116 -3.5919,-3.42786 -0.116,-4.96372 3.42785,-3.59191 4.96372,-0.116 3.59191,3.42786 0.116,4.96372 z"
       transform="matrix(0.52481586,0,0,0.52481586,-18.516005,-92.426976)"
       inkscape:transform-center-x="2.4914839e-06"
       inkscape:transform-center-y="-3.0915092e-06" />
    <g
       aria-label="45°"
       transform="scale(-1)"
       id="text11108"
       style="font-size:2.49612px;line-height:1.25;stroke-width:0.264582">
      <path
         d="m -88.945337,-111.68061 -0.514337,0.76175 h 0.514337 z m -0.078,-0.38636 h 0.52165 v 1.14811 h 0.259606 v 0.34005 h -0.259606 v 0.33152 h -0.443646 v -0.33152 h -0.806851 v -0.4022 z"
         id="path20063" />
      <path
         d="m -87.863035,-112.06697 h 1.1664 v 0.34492 h -0.792226 v 0.28154 q 0.05363,-0.0146 0.107255,-0.0219 0.05485,-0.009 0.113349,-0.009 0.332735,0 0.517994,0.16698 0.185259,0.16576 0.185259,0.46315 0,0.29495 -0.202322,0.46193 -0.201104,0.16697 -0.559433,0.16697 -0.154789,0 -0.30714,-0.0305 -0.151132,-0.0293 -0.301046,-0.0902 v -0.3693 q 0.148695,0.0853 0.281545,0.12798 0.134069,0.0427 0.252293,0.0427 0.170633,0 0.268138,-0.0829 0.09872,-0.0841 0.09872,-0.2267 0,-0.14382 -0.09872,-0.2267 -0.0975,-0.0829 -0.268138,-0.0829 -0.101161,0 -0.215729,0.0268 -0.114568,0.0256 -0.246199,0.0804 z"
         id="path20065" />
      <path
         d="m -85.766684,-111.9195 q -0.08776,0 -0.148695,0.0609 -0.06094,0.0609 -0.06094,0.1487 0,0.0877 0.05972,0.14747 0.06094,0.0597 0.149914,0.0597 0.08775,0 0.148694,-0.0597 0.06094,-0.0609 0.06094,-0.14747 0,-0.0878 -0.06216,-0.1487 -0.06094,-0.0609 -0.147475,-0.0609 z m 0,-0.19744 q 0.08044,0 0.154788,0.0317 0.07435,0.0305 0.13285,0.0877 0.05728,0.0585 0.08654,0.13163 0.03047,0.0731 0.03047,0.15601 0,0.0817 -0.03047,0.15601 -0.02925,0.0731 -0.0841,0.12797 -0.0585,0.0585 -0.134069,0.0902 -0.07557,0.0305 -0.158445,0.0305 -0.171852,0 -0.288858,-0.11578 -0.115786,-0.11701 -0.115786,-0.28886 0,-0.17185 0.117005,-0.28886 0.118225,-0.11822 0.290077,-0.11822 z"
         id="path20067" />
    </g>
    <g
       aria-label="67.5°"
       transform="rotate(-112.5)"
       id="text11108-7"
       style="font-size:2.49612px;line-height:1.25;stroke-width:0.264582">
      <path
         d="m -157.68135,91.98027 q -0.1231,0 -0.18526,0.08044 -0.0609,0.07922 -0.0609,0.238886 0,0.159664 0.0609,0.240106 0.0622,0.07922 0.18526,0.07922 0.12432,0 0.18526,-0.07922 0.0622,-0.08044 0.0622,-0.240106 0,-0.159664 -0.0622,-0.238886 -0.0609,-0.08044 -0.18526,-0.08044 z m 0.58015,-0.873885 v 0.336391 q -0.11578,-0.05485 -0.21816,-0.08044 -0.10238,-0.02681 -0.19989,-0.02681 -0.20963,0 -0.32664,0.117005 -0.11701,0.115787 -0.13651,0.344923 0.0804,-0.05972 0.17429,-0.08897 0.0939,-0.03047 0.20476,-0.03047 0.27911,0 0.44974,0.16332 0.17186,0.163321 0.17186,0.427802 0,0.292514 -0.19136,0.469241 -0.19135,0.175509 -0.51312,0.175509 -0.35467,0 -0.54968,-0.238887 -0.19379,-0.240105 -0.19379,-0.680095 0,-0.450959 0.2267,-0.708128 0.22792,-0.258387 0.62403,-0.258387 0.12554,0 0.24376,0.0195 0.11823,0.0195 0.23401,0.0585 z"
         id="path20192" />
      <path
         d="m -156.68071,91.058851 h 1.37116 v 0.264482 l -0.70935,1.555199 h -0.45705 l 0.67156,-1.474758 h -0.87632 z"
         id="path20194" />
      <path
         d="m -154.85615,92.406853 h 0.43877 v 0.471679 h -0.43877 z"
         id="path20196" />
      <path
         d="m -153.89817,91.058851 h 1.1664 v 0.344923 h -0.79222 v 0.281545 q 0.0536,-0.01463 0.10725,-0.02194 0.0549,-0.0085 0.11335,-0.0085 0.33273,0 0.51799,0.166976 0.18526,0.165758 0.18526,0.463148 0,0.294951 -0.20232,0.461928 -0.2011,0.166977 -0.55943,0.166977 -0.15479,0 -0.30714,-0.03047 -0.15114,-0.02925 -0.30105,-0.09019 v -0.369299 q 0.1487,0.08532 0.28155,0.127975 0.13406,0.04266 0.25229,0.04266 0.17063,0 0.26814,-0.08288 0.0987,-0.0841 0.0987,-0.226698 0,-0.14382 -0.0987,-0.226699 -0.0975,-0.08288 -0.26814,-0.08288 -0.10116,0 -0.21573,0.02681 -0.11457,0.0256 -0.2462,0.08044 z"
         id="path20198" />
      <path
         d="m -151.80182,91.206327 q -0.0877,0 -0.14869,0.06094 -0.0609,0.06094 -0.0609,0.148695 0,0.08775 0.0597,0.147476 0.0609,0.05972 0.14991,0.05972 0.0878,0 0.1487,-0.05972 0.0609,-0.06094 0.0609,-0.147476 0,-0.08775 -0.0622,-0.148695 -0.0609,-0.06094 -0.14748,-0.06094 z m 0,-0.197447 q 0.0804,0 0.15479,0.03169 0.0744,0.03047 0.13285,0.08775 0.0573,0.0585 0.0865,0.131632 0.0305,0.07313 0.0305,0.156007 0,0.08166 -0.0305,0.156008 -0.0293,0.07313 -0.0841,0.127975 -0.0585,0.0585 -0.13407,0.09019 -0.0756,0.03047 -0.15845,0.03047 -0.17185,0 -0.28885,-0.115787 -0.11579,-0.117006 -0.11579,-0.288858 0,-0.171852 0.11701,-0.288858 0.11822,-0.118224 0.29007,-0.118224 z"
         id="path20200" />
    </g>
    <g
       aria-label="54°"
       transform="rotate(-54)"
       id="text11108-7-7"
       style="font-size:2.49612px;line-height:1.25;stroke-width:0.264582">
      <path
         d="m -76.356017,215.06711 h 1.1664 v 0.34493 h -0.792226 v 0.28154 q 0.05363,-0.0146 0.107255,-0.0219 0.05485,-0.009 0.113349,-0.009 0.332735,0 0.517994,0.16698 0.185259,0.16576 0.185259,0.46315 0,0.29495 -0.202322,0.46192 -0.201104,0.16698 -0.559433,0.16698 -0.154789,0 -0.30714,-0.0305 -0.151132,-0.0293 -0.301046,-0.0902 v -0.3693 q 0.148695,0.0853 0.281545,0.12797 0.134069,0.0427 0.252293,0.0427 0.170633,0 0.268138,-0.0829 0.09872,-0.0841 0.09872,-0.22669 0,-0.14382 -0.09872,-0.2267 -0.0975,-0.0829 -0.268138,-0.0829 -0.101161,0 -0.215729,0.0268 -0.114568,0.0256 -0.246199,0.0804 z"
         id="path20138" />
      <path
         d="m -73.964715,215.45348 -0.514337,0.76175 h 0.514337 z m -0.078,-0.38637 h 0.521651 v 1.14812 h 0.259606 v 0.34005 h -0.259606 v 0.33152 h -0.443647 v -0.33152 h -0.806851 v -0.40221 z"
         id="path20140" />
      <path
         d="m -72.522864,215.21459 q -0.08775,0 -0.148695,0.0609 -0.06094,0.0609 -0.06094,0.14869 0,0.0878 0.05972,0.14748 0.06094,0.0597 0.149914,0.0597 0.08775,0 0.148694,-0.0597 0.06094,-0.0609 0.06094,-0.14748 0,-0.0877 -0.06216,-0.14869 -0.06094,-0.0609 -0.147476,-0.0609 z m 0,-0.19745 q 0.08044,0 0.154788,0.0317 0.07435,0.0305 0.132851,0.0878 0.05728,0.0585 0.08653,0.13163 0.03047,0.0731 0.03047,0.156 0,0.0817 -0.03047,0.15601 -0.02925,0.0731 -0.0841,0.12798 -0.0585,0.0585 -0.134069,0.0902 -0.07557,0.0305 -0.158445,0.0305 -0.171852,0 -0.288857,-0.11579 -0.115787,-0.117 -0.115787,-0.28886 0,-0.17185 0.117005,-0.28885 0.118225,-0.11823 0.290077,-0.11823 z"
         id="path20142" />
    </g>
    <g
       aria-label="60°"
       id="text11108-7-4"
       style="font-size:2.49612px;line-height:1.25;stroke-width:0.264582">
      <path
         d="m 72.079437,187.02775 q -0.123099,0 -0.185259,0.0804 -0.06094,0.0792 -0.06094,0.23889 0,0.15966 0.06094,0.2401 0.06216,0.0792 0.185259,0.0792 0.124319,0 0.185259,-0.0792 0.06216,-0.0804 0.06216,-0.2401 0,-0.15967 -0.06216,-0.23889 -0.06094,-0.0804 -0.185259,-0.0804 z m 0.580153,-0.87389 v 0.33639 q -0.115787,-0.0548 -0.218167,-0.0804 -0.10238,-0.0268 -0.199884,-0.0268 -0.209635,0 -0.326641,0.117 -0.117006,0.11579 -0.136507,0.34493 0.08044,-0.0597 0.17429,-0.089 0.09385,-0.0305 0.20476,-0.0305 0.279107,0 0.44974,0.16332 0.171852,0.16332 0.171852,0.42781 0,0.29251 -0.191353,0.46924 -0.191353,0.17551 -0.513118,0.17551 -0.354673,0 -0.549683,-0.23889 -0.19379,-0.24011 -0.19379,-0.6801 0,-0.45096 0.226698,-0.70812 0.227917,-0.25839 0.62403,-0.25839 0.125537,0 0.243762,0.0195 0.118224,0.0195 0.234011,0.0585 z"
         id="path20113" />
      <path
         d="m 74.06122,187.01434 q 0,-0.34127 -0.0646,-0.48021 -0.06338,-0.14016 -0.21451,-0.14016 -0.151132,0 -0.215729,0.14016 -0.0646,0.13894 -0.0646,0.48021 0,0.34492 0.0646,0.48631 0.0646,0.14138 0.215729,0.14138 0.149913,0 0.21451,-0.14138 0.0646,-0.14139 0.0646,-0.48631 z m 0.469241,0.004 q 0,0.45218 -0.195009,0.69838 -0.195009,0.24498 -0.553339,0.24498 -0.359549,0 -0.554558,-0.24498 -0.195009,-0.2462 -0.195009,-0.69838 0,-0.4534 0.195009,-0.69838 0.195009,-0.2462 0.554558,-0.2462 0.35833,0 0.553339,0.2462 0.195009,0.24498 0.195009,0.69838 z"
         id="path20115" />
      <path
         d="m 75.273934,186.2538 q -0.08775,0 -0.148694,0.0609 -0.06094,0.0609 -0.06094,0.14869 0,0.0877 0.05972,0.14748 0.06094,0.0597 0.149913,0.0597 0.08776,0 0.148695,-0.0597 0.06094,-0.0609 0.06094,-0.14748 0,-0.0877 -0.06216,-0.14869 -0.06094,-0.0609 -0.147476,-0.0609 z m 0,-0.19744 q 0.08044,0 0.154789,0.0317 0.07435,0.0305 0.13285,0.0877 0.05728,0.0585 0.08654,0.13163 0.03047,0.0731 0.03047,0.15601 0,0.0817 -0.03047,0.15601 -0.02925,0.0731 -0.0841,0.12797 -0.0585,0.0585 -0.134069,0.0902 -0.07557,0.0305 -0.158445,0.0305 -0.171852,0 -0.288858,-0.11578 -0.115787,-0.11701 -0.115787,-0.28886 0,-0.17185 0.117006,-0.28886 0.118224,-0.11822 0.290076,-0.11822 z"
         id="path20117" />
    </g>
    <g
       aria-label="75°"
       transform="rotate(75)"
       id="text11108-7-4-8"
       style="font-size:2.49612px;line-height:1.25;stroke-width:0.264582">
      <path
         d="m 149.95705,-11.01652 h 1.37116 v 0.264482 l -0.70935,1.5551996 h -0.45705 l 0.67156,-1.4747586 h -0.87632 z"
         id="path20088" />
      <path
         d="m 151.79135,-11.01652 h 1.1664 v 0.344923 h -0.79222 v 0.281545 q 0.0536,-0.01463 0.10725,-0.02194 0.0548,-0.0085 0.11335,-0.0085 0.33274,0 0.518,0.166977 0.18525,0.165758 0.18525,0.4631468 0,0.2949517 -0.20232,0.4619285 -0.2011,0.1669768 -0.55943,0.1669768 -0.15479,0 -0.30714,-0.03047 -0.15113,-0.029251 -0.30105,-0.090192 v -0.369299 q 0.1487,0.085317 0.28155,0.1279749 0.13407,0.042658 0.25229,0.042658 0.17063,0 0.26814,-0.082879 0.0987,-0.084098 0.0987,-0.2266984 0,-0.1438194 -0.0987,-0.2266988 -0.0975,-0.08288 -0.26814,-0.08288 -0.10116,0 -0.21573,0.02681 -0.11457,0.02559 -0.2462,0.080442 z"
         id="path20090" />
      <path
         d="m 153.8877,-10.869044 q -0.0877,0 -0.14869,0.06094 -0.0609,0.06094 -0.0609,0.148694 0,0.08775 0.0597,0.147476 0.0609,0.05972 0.14991,0.05972 0.0878,0 0.1487,-0.05972 0.0609,-0.06094 0.0609,-0.147476 0,-0.08775 -0.0622,-0.148694 -0.0609,-0.06094 -0.14748,-0.06094 z m 0,-0.197447 q 0.0805,0 0.15479,0.03169 0.0744,0.03047 0.13285,0.08775 0.0573,0.0585 0.0865,0.131632 0.0305,0.07313 0.0305,0.156007 0,0.08166 -0.0305,0.156008 -0.0292,0.07313 -0.0841,0.127975 -0.0585,0.0585 -0.13407,0.09019 -0.0756,0.03047 -0.15844,0.03047 -0.17186,0 -0.28886,-0.115787 -0.11579,-0.117006 -0.11579,-0.288858 0,-0.171852 0.11701,-0.288857 0.11822,-0.118225 0.29007,-0.118225 z"
         id="path20092" />
    </g>
    <g
       aria-label="58.5°"
       transform="rotate(-58.5)"
       id="text11108-7-4-9"
       style="font-size:2.49612px;line-height:1.25;stroke-width:0.264582">
      <path
         d="m -42.995311,215.15348 h 1.1664 v 0.34492 h -0.792226 v 0.28155 q 0.05363,-0.0146 0.107256,-0.0219 0.05485,-0.009 0.113349,-0.009 0.332734,0 0.517993,0.16697 0.185259,0.16576 0.185259,0.46315 0,0.29495 -0.202322,0.46193 -0.201103,0.16698 -0.559433,0.16698 -0.154789,0 -0.30714,-0.0305 -0.151132,-0.0293 -0.301046,-0.0902 v -0.3693 q 0.148695,0.0853 0.281545,0.12798 0.134069,0.0427 0.252294,0.0427 0.170633,0 0.268137,-0.0829 0.09872,-0.0841 0.09872,-0.2267 0,-0.14382 -0.09872,-0.2267 -0.0975,-0.0829 -0.268137,-0.0829 -0.101162,0 -0.21573,0.0268 -0.114568,0.0256 -0.246199,0.0804 z"
         id="path20163" />
      <path
         d="m -40.65398,216.159 q -0.131631,0 -0.202322,0.0719 -0.07069,0.0719 -0.07069,0.20597 0,0.13407 0.07069,0.20598 0.07069,0.0707 0.202322,0.0707 0.130413,0 0.199885,-0.0707 0.06947,-0.0719 0.06947,-0.20598 0,-0.13528 -0.06947,-0.20597 -0.06947,-0.0719 -0.199885,-0.0719 z m -0.342485,-0.15479 q -0.165758,-0.05 -0.249856,-0.15357 -0.0841,-0.1036 -0.0841,-0.25839 0,-0.23036 0.171852,-0.35102 0.171852,-0.12066 0.504586,-0.12066 0.330298,0 0.50215,0.12066 0.171852,0.11945 0.171852,0.35102 0,0.15479 -0.08532,0.25839 -0.0841,0.1036 -0.249856,0.15357 0.185259,0.0512 0.279107,0.16697 0.09507,0.11457 0.09507,0.29008 0,0.27058 -0.180383,0.40952 -0.179165,0.13773 -0.53262,0.13773 -0.354673,0 -0.536275,-0.13773 -0.180384,-0.13894 -0.180384,-0.40952 0,-0.17551 0.09385,-0.29008 0.09507,-0.11578 0.280326,-0.16697 z m 0.109693,-0.36443 q 0,0.10848 0.05972,0.16698 0.06094,0.0585 0.17307,0.0585 0.109693,0 0.169415,-0.0585 0.05972,-0.0585 0.05972,-0.16698 0,-0.10847 -0.05972,-0.16575 -0.05972,-0.0585 -0.169415,-0.0585 -0.11213,0 -0.17307,0.0585 -0.05972,0.0585 -0.05972,0.16575 z"
         id="path20165" />
      <path
         d="m -39.531457,216.50148 h 0.438771 v 0.47168 h -0.438771 z"
         id="path20167" />
      <path
         d="m -38.573474,215.15348 h 1.1664 v 0.34492 h -0.792225 v 0.28155 q 0.05363,-0.0146 0.107255,-0.0219 0.05485,-0.009 0.113349,-0.009 0.332735,0 0.517994,0.16697 0.185259,0.16576 0.185259,0.46315 0,0.29495 -0.202323,0.46193 -0.201103,0.16698 -0.559433,0.16698 -0.154788,0 -0.30714,-0.0305 -0.151132,-0.0293 -0.301045,-0.0902 v -0.3693 q 0.148694,0.0853 0.281545,0.12798 0.134068,0.0427 0.252293,0.0427 0.170633,0 0.268138,-0.0829 0.09872,-0.0841 0.09872,-0.2267 0,-0.14382 -0.09872,-0.2267 -0.0975,-0.0829 -0.268138,-0.0829 -0.101161,0 -0.215729,0.0268 -0.114568,0.0256 -0.2462,0.0804 z"
         id="path20169" />
      <path
         d="m -36.477122,215.30095 q -0.08776,0 -0.148695,0.0609 -0.06094,0.061 -0.06094,0.1487 0,0.0877 0.05972,0.14748 0.06094,0.0597 0.149914,0.0597 0.08775,0 0.148694,-0.0597 0.06094,-0.061 0.06094,-0.14748 0,-0.0877 -0.06216,-0.1487 -0.06094,-0.0609 -0.147475,-0.0609 z m 0,-0.19744 q 0.08044,0 0.154788,0.0317 0.07435,0.0305 0.13285,0.0877 0.05728,0.0585 0.08654,0.13163 0.03047,0.0731 0.03047,0.15601 0,0.0817 -0.03047,0.15601 -0.02925,0.0731 -0.0841,0.12797 -0.0585,0.0585 -0.134069,0.0902 -0.07557,0.0305 -0.158445,0.0305 -0.171852,0 -0.288858,-0.11578 -0.115786,-0.11701 -0.115786,-0.28886 0,-0.17185 0.117005,-0.28886 0.118225,-0.11822 0.290077,-0.11822 z"
         id="path20171" />
    </g>
    <path
       sodipodi:type="star"
       style="vector-effect:non-scaling-stroke;fill:#782121;stroke:#ff0000;stroke-width:0.020157;-inkscape-stroke:hairline"
       id="path19981"
       inkscape:flatsided="false"
       sodipodi:sides="5"
       sodipodi:cx="284.81955"
       sodipodi:cy="225.20615"
       sodipodi:r1="26.333357"
       sodipodi:r2="13.166678"
       sodipodi:arg1="0.99442111"
       sodipodi:arg2="1.6227396"
       inkscape:rounded="0"
       inkscape:randomized="0"
       d="m 299.17092,247.28518 -15.03498,-8.93011 -15.87998,7.32284 3.84698,-17.05868 -11.87163,-12.83987 17.41255,-1.61273 8.54292,-15.25832 6.91457,16.06195 17.15143,3.40972 -13.13911,11.53956 z"
       transform="matrix(0.13126106,0,0,0.13126106,131.55415,116.62378)"
       inkscape:transform-center-x="-0.055456251"
       inkscape:transform-center-y="-0.27688378" />
    <circle
       style="vector-effect:non-scaling-stroke;fill:none;stroke:#ff0000;stroke-width:0.00264583;stroke-opacity:1;-inkscape-stroke:hairline"
       id="path20379"
       cx="99.666466"
       cy="132.29929"
       r="2.3875999" />
    <circle
       style="vector-effect:non-scaling-stroke;fill:none;stroke:#ff0000;stroke-width:0.00264583;stroke-opacity:1;-inkscape-stroke:hairline"
       id="circle20515"
       cx="120.69674"
       cy="134.709"
       r="2.3875999" />
    <circle
       style="vector-effect:non-scaling-stroke;fill:none;stroke:#ff0000;stroke-width:0.00264583;stroke-opacity:1;-inkscape-stroke:hairline"
       id="circle20517"
       cx="125.9543"
       cy="147.41479"
       r="2.3875999" />
    <circle
       style="vector-effect:non-scaling-stroke;fill:none;stroke:#ff0000;stroke-width:0.00264583;stroke-opacity:1;-inkscape-stroke:hairline"
       id="circle20519"
       cx="118.21399"
       cy="161.28894"
       r="2.3875999" />
    <circle
       style="vector-effect:non-scaling-stroke;fill:none;stroke:#ff0000;stroke-width:0.00264583;stroke-opacity:1;-inkscape-stroke:hairline"
       id="circle20521"
       cx="97.420799"
       cy="159.59143"
       r="2.3875999" />
    <circle
       style="vector-effect:non-scaling-stroke;fill:none;stroke:#ff0000;stroke-width:0.00264583;stroke-opacity:1;-inkscape-stroke:hairline"
       id="circle20523"
       cx="92.218239"
       cy="146.83063"
       r="2.3875999" />
  </g>
</svg>
